<?xml version="1.0" encoding="utf-8"?>
<!-- Generator: Adobe Illustrator 26.0.3, SVG Export Plug-In . SVG Version: 6.00 Build 0)  -->
<svg version="1.1" id="Слой_1" xmlns="http://www.w3.org/2000/svg" xmlns:xlink="http://www.w3.org/1999/xlink" x="0px" y="0px"
	 viewBox="0 0 100 100" style="enable-background:new 0 0 100 100;" xml:space="preserve">
<style type="text/css">
	.st0{fill-rule:evenodd;clip-rule:evenodd;fill:url(#Oval_00000110447628526317083740000013336181196394630286_);}
	.st1{fill-rule:evenodd;clip-rule:evenodd;fill:#FFFFFF;}
	.st2{fill:#FFFFFF;}
	.st3{fill:#0081FB;enable-background:new    ;}
	.st4{fill-rule:evenodd;clip-rule:evenodd;fill:#0172B1;}
	.st5{fill-rule:evenodd;clip-rule:evenodd;fill:#FEFEFE;}
	.st6{fill-rule:evenodd;clip-rule:evenodd;fill:#DBDBDB;}
	.st7{fill:#DBDBDB;}
	.st8{fill:#003769;}
	.st9{fill:#B2B2B2;}
	.st10{fill:#EFEFEF;}
</style>
<g>
	<g>
		<ellipse transform="matrix(0.3776 -0.926 0.926 0.3776 -15.1787 77.4178)" class="st6" cx="50" cy="50" rx="48" ry="48"/>
	</g>
	<path class="st2" d="M50,21.5c-7.7,0-8.7,0-11.8,0.2c-3.1,0.1-5.1,0.6-6.9,1.3c-3.8,1.5-6.9,4.5-8.3,8.3c-0.7,1.8-1.2,3.9-1.3,6.9
		c-0.1,3-0.2,4-0.2,11.7s0,8.7,0.2,11.7c0.1,3,0.6,5.1,1.3,6.9c1.5,3.8,4.5,6.8,8.3,8.3c1.8,0.7,3.9,1.2,6.9,1.3
		c3,0.1,4,0.2,11.7,0.2c7.7,0,8.7,0,11.7-0.2s5.1-0.6,6.9-1.3c3.8-1.5,6.8-4.5,8.3-8.3c0.7-1.8,1.2-3.9,1.3-6.9
		c0.1-3,0.2-4,0.2-11.7s0-8.7-0.2-11.7c-0.1-3-0.6-5.1-1.3-6.9c-1.5-3.8-4.5-6.8-8.3-8.3c-1.8-0.7-3.9-1.2-6.9-1.3
		C58.7,21.6,57.7,21.6,50,21.5L50,21.5z M47.5,26.7H50c7.6,0,8.5,0,11.5,0.2c2.8,0.1,4.3,0.6,5.3,1c2.5,1,4.4,2.9,5.4,5.4
		c0.4,1,0.9,2.5,1,5.3c0.1,3,0.2,3.9,0.2,11.5s0,8.5-0.2,11.5c-0.1,2.8-0.6,4.3-1,5.3c-1,2.5-2.9,4.4-5.4,5.4c-1,0.4-2.5,0.9-5.3,1
		c-3,0.1-3.9,0.2-11.5,0.2s-8.5,0-11.5-0.2c-2.8-0.1-4.3-0.6-5.3-1c-2.5-1-4.4-2.9-5.4-5.4c-0.4-1-0.9-2.5-1-5.3
		c-0.1-3-0.2-3.9-0.2-11.5s0-8.5,0.2-11.5c0.1-2.8,0.6-4.3,1-5.3c1-2.5,2.9-4.4,5.4-5.4c1-0.4,2.5-0.8,5.3-1
		C41.1,26.7,42.2,26.7,47.5,26.7L47.5,26.7z M65.2,31.4c-1.9,0-3.4,1.5-3.4,3.4c0,1.9,1.5,3.4,3.4,3.4c1.9,0,3.4-1.5,3.4-3.4
		C68.7,32.9,67.1,31.4,65.2,31.4C65.2,31.4,65.2,31.4,65.2,31.4z M50,35.4c-8.1,0-14.6,6.6-14.6,14.6c0,8.1,6.6,14.6,14.6,14.6
		c8.1,0,14.6-6.5,14.6-14.6C64.6,41.9,58.1,35.4,50,35.4L50,35.4z M50,40.5c5.2,0,9.5,4.3,9.5,9.5c0,5.2-4.3,9.5-9.5,9.5
		c-5.2,0-9.5-4.2-9.5-9.5C40.5,44.8,44.8,40.5,50,40.5C50,40.5,50,40.5,50,40.5L50,40.5z"/>
</g>
</svg>
