<?xml version="1.0" encoding="utf-8"?>
<!-- Generator: Adobe Illustrator 26.0.3, SVG Export Plug-In . SVG Version: 6.00 Build 0)  -->
<svg version="1.1" id="Слой_1" xmlns="http://www.w3.org/2000/svg" xmlns:xlink="http://www.w3.org/1999/xlink" x="0px" y="0px"
	 viewBox="0 0 100 100" style="enable-background:new 0 0 100 100;" xml:space="preserve">
<style type="text/css">
	.st0{fill-rule:evenodd;clip-rule:evenodd;fill:url(#Oval_00000182486172288771679380000004755257401145989792_);}
	.st1{fill-rule:evenodd;clip-rule:evenodd;fill:#FFFFFF;}
	.st2{fill:#FFFFFF;}
	.st3{fill:#0081FB;enable-background:new    ;}
	.st4{fill-rule:evenodd;clip-rule:evenodd;fill:#0172B1;}
	.st5{fill-rule:evenodd;clip-rule:evenodd;fill:#FEFEFE;}
	.st6{fill-rule:evenodd;clip-rule:evenodd;fill:#DBDBDB;}
	.st7{fill:#DBDBDB;}
	.st8{fill:#003769;}
	.st9{fill:#B2B2B2;}
	.st10{fill:#EFEFEF;}
</style>
<g>
	<g>
		<path class="st7" d="M50,98L50,98C23.5,98,2,76.5,2,50v0C2,23.5,23.5,2,50,2h0c26.5,0,48,21.5,48,48v0C98,76.5,76.5,98,50,98z"/>
	</g>
	<g>
		<g>
			<defs>
				<path id="SVGID_00000168076146718032346110000009833829079948830615_" d="M28.3,55.8c0-9,4.5-18.2,9.8-18.2c2.9,0,5.3,1.7,9,7
					c-3.5,5.4-5.7,8.8-5.7,8.8c-4.7,7.4-6.3,9-8.9,9C29.9,62.4,28.3,60,28.3,55.8 M59.2,52.5L56,47.1c-0.9-1.4-1.7-2.7-2.5-3.9
					c2.9-4.5,5.3-6.8,8.2-6.8c6,0,10.7,8.8,10.7,19.6c0,4.1-1.3,6.5-4.1,6.5C65.6,62.4,64.3,60.6,59.2,52.5 M50.8,39.4
					c-4.4-5.6-8.1-7.8-12.5-7.8c-9,0-15.9,11.7-15.9,24.1c0,7.8,3.8,12.7,10,12.7c4.5,0,7.8-2.1,13.6-12.3l4-7.2
					c0.6,0.9,1.2,2,1.8,3l2.7,4.6c5.3,8.8,8.2,11.9,13.6,11.9c6.1,0,9.5-5,9.5-12.9c0-13-7.1-23.9-15.6-23.9
					C57.5,31.6,54,35,50.8,39.4"/>
			</defs>
			<use xlink:href="#SVGID_00000168076146718032346110000009833829079948830615_"  style="overflow:visible;fill:#FFFFFF;"/>
			<clipPath id="SVGID_00000070835639506446723850000009424549012245398690_">
				<use xlink:href="#SVGID_00000168076146718032346110000009833829079948830615_"  style="overflow:visible;"/>
			</clipPath>
		</g>
	</g>
</g>
</svg>
