<?xml version="1.0" encoding="utf-8"?>
<!-- Generator: Adobe Illustrator 26.0.3, SVG Export Plug-In . SVG Version: 6.00 Build 0)  -->
<svg version="1.1" id="Слой_1" xmlns="http://www.w3.org/2000/svg" xmlns:xlink="http://www.w3.org/1999/xlink" x="0px" y="0px"
	 viewBox="0 0 100 100" style="enable-background:new 0 0 100 100;" xml:space="preserve">
<style type="text/css">
	.st0{fill-rule:evenodd;clip-rule:evenodd;fill:url(#Oval_00000091008470721475894910000013000230402984282258_);}
	.st1{fill-rule:evenodd;clip-rule:evenodd;fill:#FFFFFF;}
	.st2{fill:#FFFFFF;}
	.st3{fill:#0081FB;enable-background:new    ;}
	.st4{fill-rule:evenodd;clip-rule:evenodd;fill:#0172B1;}
	.st5{fill-rule:evenodd;clip-rule:evenodd;fill:#FEFEFE;}
	.st6{fill-rule:evenodd;clip-rule:evenodd;fill:#DBDBDB;}
	.st7{fill:#DBDBDB;}
	.st8{fill:#003769;}
	.st9{fill:#B2B2B2;}
	.st10{fill:#EFEFEF;}
</style>
<g id="Artboard_00000003819932774339152440000010616221900840878475_">
	<g id="Oval_00000067232406647158602870000012829224588004675209_">
		<circle class="st6" cx="50" cy="50" r="48"/>
	</g>
	<path id="Path-3_00000166655352454762721130000010064388217023138455_" class="st1" d="M23.7,49.5c14-6.1,23.3-10.1,28-12.1
		c13.3-5.5,16.1-6.5,17.9-6.5c0.4,0,1.3,0.1,1.9,0.6c0.5,0.4,0.6,0.9,0.7,1.3s0.1,1.2,0.1,1.9c-0.7,7.6-3.8,26-5.4,34.5
		c-0.7,3.6-2,4.8-3.3,4.9c-2.8,0.3-4.9-1.8-7.6-3.6c-4.2-2.8-6.6-4.5-10.7-7.2c-4.7-3.1-1.7-4.8,1-7.6c0.7-0.7,13-11.9,13.2-12.9
		c0-0.1,0.1-0.6-0.2-0.8c-0.3-0.2-0.7-0.2-1-0.1c-0.4,0.1-7.2,4.6-20.2,13.4c-1.9,1.3-3.7,2-5.2,1.9c-1.7,0-5-1-7.5-1.8
		c-3-1-5.4-1.5-5.2-3.2C20.3,51.3,21.5,50.4,23.7,49.5z"/>
</g>
</svg>
