<?xml version="1.0" encoding="utf-8"?>
<!-- Generator: Adobe Illustrator 26.0.3, SVG Export Plug-In . SVG Version: 6.00 Build 0)  -->
<svg version="1.1" id="Слой_1" xmlns="http://www.w3.org/2000/svg" xmlns:xlink="http://www.w3.org/1999/xlink" x="0px" y="0px"
	 viewBox="0 0 100 100" style="enable-background:new 0 0 100 100;" xml:space="preserve">
<style type="text/css">
	.st0{fill-rule:evenodd;clip-rule:evenodd;fill:url(#Oval_00000168808497686935248990000016160606909787886271_);}
	.st1{fill-rule:evenodd;clip-rule:evenodd;fill:#FFFFFF;}
	.st2{fill:#FFFFFF;}
	.st3{fill:#0081FB;enable-background:new    ;}
	.st4{fill-rule:evenodd;clip-rule:evenodd;fill:#0172B1;}
	.st5{fill-rule:evenodd;clip-rule:evenodd;fill:#FEFEFE;}
	.st6{fill-rule:evenodd;clip-rule:evenodd;fill:#DBDBDB;}
	.st7{fill:#DBDBDB;}
	.st8{fill:#003769;}
	.st9{fill:#B2B2B2;}
	.st10{fill:#EFEFEF;}
</style>
<g>
	
		<ellipse transform="matrix(0.9952 -9.811461e-02 9.811461e-02 0.9952 -4.6645 5.147)" class="st4" cx="50" cy="50" rx="48" ry="48"/>
	<g>
		<path class="st5" d="M53.1,45.5c0.2-0.3,0.3-0.3,0.4-0.4c3.2-4.7,7.8-6.1,13.2-5.3c6.2,1,10.2,5.3,11.2,12
			c0.2,1.6,0.4,3.2,0.4,4.8c0,6.6,0,13.3,0,19.9c0,0.7-0.2,1-0.9,1c-3.5,0-6.9,0-10.4,0c-0.8,0-1-0.2-0.9-1c0-6.2,0-12.4,0-18.5
			c0-1.4-0.1-2.8-0.5-4.2c-1.3-4.4-6.2-5.9-9.8-3c-1.9,1.6-2.7,3.6-2.6,6.1c0,5.8,0,11.7,0,17.5c0,0.8,0,1.5,0,2.3
			c0,0.7-0.2,0.8-0.8,0.8c-3.5,0-7.1,0-10.6,0c-0.6,0-0.9-0.1-0.9-0.8c0.1-5.3,0.1-10.5,0.1-15.8c0-6.5,0-12.9-0.1-19.4
			c0-0.7,0.1-0.9,0.9-0.9c3.5,0,7.1,0,10.6,0c0.6,0,0.8,0.2,0.8,0.8C53.1,42.6,53.1,43.9,53.1,45.5z"/>
		<path class="st5" d="M34.1,58.9c0,5.8,0,11.7,0,17.5c0,0.7-0.1,1-0.9,1c-3.5,0-7,0-10.5,0c-0.7,0-0.9-0.2-0.9-0.8
			c0-11.7,0-23.5,0-35.2c0-0.6,0.1-0.8,0.8-0.8c3.6,0,7.1,0,10.7,0c0.7,0,0.8,0.3,0.8,0.9C34.1,47.2,34.1,53,34.1,58.9z"/>
		<path class="st5" d="M28.1,22.7c4.7,0,7.8,3.7,6.6,8.1c-0.8,3.3-4.2,5.2-8.2,4.6c-4.2-0.7-6.5-4.8-5-8.7
			C22.5,24.2,25,22.7,28.1,22.7z"/>
	</g>
</g>
</svg>
