<?xml version="1.0" encoding="utf-8"?>
<!-- Generator: Adobe Illustrator 26.0.3, SVG Export Plug-In . SVG Version: 6.00 Build 0)  -->
<svg version="1.1" id="Слой_1" xmlns="http://www.w3.org/2000/svg" xmlns:xlink="http://www.w3.org/1999/xlink" x="0px" y="0px"
	 viewBox="0 0 100 100" style="enable-background:new 0 0 100 100;" xml:space="preserve">
<style type="text/css">
	.st0{fill-rule:evenodd;clip-rule:evenodd;fill:url(#Oval_00000051359254519719329450000006108846755736025534_);}
	.st1{fill-rule:evenodd;clip-rule:evenodd;fill:#FFFFFF;}
	.st2{fill:#FFFFFF;}
	.st3{fill:#0081FB;enable-background:new    ;}
	.st4{fill-rule:evenodd;clip-rule:evenodd;fill:#0172B1;}
	.st5{fill-rule:evenodd;clip-rule:evenodd;fill:#FEFEFE;}
	.st6{fill-rule:evenodd;clip-rule:evenodd;fill:#DBDBDB;}
	.st7{fill:#DBDBDB;}
	.st8{fill:#003769;}
	.st9{fill:#B2B2B2;}
	.st10{fill:#EFEFEF;}
</style>
<path class="st8" d="M97,92.4L69.9,65.3c12.7-15.1,12-37.8-2.2-52c-15-15-39.4-15-54.5,0c-15,15-15,39.4,0,54.5
	C20.8,75.2,30.6,79,40.5,79c8.8,0,17.6-3,24.8-9L92.4,97c0.6,0.6,1.5,1,2.3,1c0.8,0,1.7-0.3,2.3-1C98.3,95.7,98.3,93.6,97,92.4z
	 M17.9,63.1c-12.4-12.4-12.4-32.7,0-45.1c6.2-6.2,14.4-9.3,22.6-9.3s16.3,3.1,22.6,9.3c12.4,12.4,12.4,32.7,0,45.1
	C50.6,75.5,30.4,75.5,17.9,63.1z"/>
</svg>
