<?xml version="1.0" encoding="utf-8"?>
<!-- Generator: Adobe Illustrator 26.0.3, SVG Export Plug-In . SVG Version: 6.00 Build 0)  -->
<svg version="1.1" id="Слой_1" xmlns="http://www.w3.org/2000/svg" xmlns:xlink="http://www.w3.org/1999/xlink" x="0px" y="0px"
	 viewBox="0 0 100 100" style="enable-background:new 0 0 100 100;" xml:space="preserve">
<style type="text/css">
	.st0{fill-rule:evenodd;clip-rule:evenodd;fill:url(#Oval_00000085218820932194087130000009761042820658118287_);}
	.st1{fill-rule:evenodd;clip-rule:evenodd;fill:#FFFFFF;}
	.st2{fill:#FFFFFF;}
	.st3{fill:#0081FB;enable-background:new    ;}
	.st4{fill-rule:evenodd;clip-rule:evenodd;fill:#0172B1;}
	.st5{fill-rule:evenodd;clip-rule:evenodd;fill:#FEFEFE;}
	.st6{fill-rule:evenodd;clip-rule:evenodd;fill:#DBDBDB;}
	.st7{fill:#DBDBDB;}
	.st8{fill:#003769;}
	.st9{fill:#B2B2B2;}
	.st10{fill:#EFEFEF;}
</style>
<g>
	<g>
		<path class="st1" d="M73.2,38.5c-0.1-2.8-0.6-4.3-1-5.3c-1-2.5-2.9-4.4-5.4-5.4c-1-0.4-2.5-0.9-5.3-1c-3-0.1-3.9-0.2-11.5-0.2
			h-2.5l0,0c-5.3,0-6.3,0.1-8.9,0.2c-2.8,0.1-4.3,0.6-5.3,1c-2.5,1-4.4,2.9-5.4,5.4c-0.4,1-0.9,2.5-1,5.3c-0.1,3-0.2,3.9-0.2,11.5
			c0,7.6,0,8.5,0.2,11.5c0.1,2.8,0.6,4.3,1,5.3c1,2.5,2.9,4.4,5.4,5.4c1,0.4,2.5,0.9,5.3,1c3,0.1,3.9,0.2,11.5,0.2
			c7.6,0,8.5,0,11.5-0.2c2.8-0.1,4.3-0.6,5.3-1c2.5-1,4.4-2.9,5.4-5.4c0.4-1,0.9-2.5,1-5.3c0.1-3,0.2-3.9,0.2-11.5
			C73.4,42.4,73.3,41.5,73.2,38.5z M50,64.6c-8.1,0-14.6-6.5-14.6-14.6c0-8.1,6.5-14.6,14.6-14.6S64.7,41.9,64.7,50
			C64.7,58.1,58.1,64.6,50,64.6z M65.2,38.2c-1.9,0-3.4-1.5-3.4-3.4c0-1.9,1.5-3.4,3.4-3.4c1.9,0,3.4,1.5,3.4,3.4
			C68.7,36.7,67.1,38.2,65.2,38.2z"/>
	</g>
	<g>
		<path class="st1" d="M59.5,50c0,5.2-4.3,9.5-9.5,9.5c-5.2,0-9.5-4.2-9.5-9.5c0-5.2,4.3-9.5,9.5-9.5C55.3,40.5,59.5,44.8,59.5,50z"
			/>
	</g>
	<g>
		<path class="st1" d="M50,2C23.5,2,2,23.5,2,50c0,26.5,21.5,48,48,48c26.5,0,48-21.5,48-48C98,23.5,76.5,2,50,2z M78.3,61.7
			c-0.1,3-0.6,5.1-1.3,6.9c-1.5,3.8-4.5,6.8-8.3,8.3c-1.8,0.7-3.9,1.2-6.9,1.3c-3,0.1-4,0.2-11.8,0.2s-8.7,0-11.7-0.2
			c-3-0.1-5.1-0.6-6.9-1.3c-3.8-1.5-6.8-4.5-8.3-8.3c-0.7-1.8-1.2-3.9-1.3-6.9c-0.1-3-0.2-4-0.2-11.7c0-7.7,0-8.7,0.2-11.7
			c0.1-3,0.6-5.1,1.3-6.9c1.5-3.8,4.5-6.9,8.3-8.3c1.8-0.7,3.9-1.2,6.9-1.3c3-0.1,4-0.2,11.7-0.2c7.7,0,8.7,0,11.8,0.2
			c3,0.1,5.1,0.6,6.9,1.3c3.8,1.5,6.8,4.5,8.3,8.3c0.7,1.8,1.2,3.9,1.3,6.9c0.1,3,0.2,4,0.2,11.7C78.5,57.7,78.5,58.7,78.3,61.7z"/>
	</g>
</g>
</svg>
