<?xml version="1.0" encoding="utf-8"?>
<!-- Generator: Adobe Illustrator 26.0.3, SVG Export Plug-In . SVG Version: 6.00 Build 0)  -->
<svg version="1.1" id="Слой_1" xmlns="http://www.w3.org/2000/svg" xmlns:xlink="http://www.w3.org/1999/xlink" x="0px" y="0px"
	 viewBox="0 0 100 100" style="enable-background:new 0 0 100 100;" xml:space="preserve">
<style type="text/css">
	.st0{fill-rule:evenodd;clip-rule:evenodd;fill:url(#Oval_00000054961309185449166450000000990149241753037722_);}
	.st1{fill-rule:evenodd;clip-rule:evenodd;fill:#FFFFFF;}
	.st2{fill:#FFFFFF;}
	.st3{fill:#0081FB;enable-background:new    ;}
	.st4{fill-rule:evenodd;clip-rule:evenodd;fill:#0172B1;}
	.st5{fill-rule:evenodd;clip-rule:evenodd;fill:#FEFEFE;}
	.st6{fill-rule:evenodd;clip-rule:evenodd;fill:#DBDBDB;}
	.st7{fill:#DBDBDB;}
	.st8{fill:#003769;}
	.st9{fill:#B2B2B2;}
	.st10{fill:#EFEFEF;}
</style>
<g id="Artboard_00000069357262487080288670000003528018465129780881_">
	<g>
		<path class="st1" d="M50,2C23.5,2,2,23.5,2,50c0,26.5,21.5,48,48,48c26.5,0,48-21.5,48-48C98,23.5,76.5,2,50,2z M72.2,34.6
			c-0.7,7.6-3.9,26-5.4,34.5c-0.7,3.6-2,4.8-3.3,4.9c-2.8,0.3-4.9-1.9-7.6-3.6c-4.2-2.8-6.6-4.5-10.7-7.2c-4.7-3.1-1.7-4.8,1-7.6
			c0.7-0.7,13-11.9,13.2-12.9c0-0.1,0.1-0.6-0.2-0.9c-0.3-0.2-0.7-0.1-1-0.1c-0.4,0.1-7.2,4.6-20.2,13.4c-1.9,1.3-3.6,2-5.2,1.9
			c-1.7,0-5-1-7.5-1.8c-3-1-5.4-1.5-5.2-3.2c0.1-0.9,1.3-1.8,3.6-2.6c14-6.1,23.3-10.1,28-12.1c13.3-5.5,16.1-6.5,17.9-6.5
			c0.4,0,1.3,0.1,1.9,0.5c0.5,0.4,0.6,0.9,0.7,1.3C72.2,33.1,72.3,34,72.2,34.6z"/>
	</g>
</g>
</svg>
