<?xml version="1.0" encoding="utf-8"?>
<!-- Generator: Adobe Illustrator 26.0.3, SVG Export Plug-In . SVG Version: 6.00 Build 0)  -->
<svg version="1.1" id="Слой_1" xmlns="http://www.w3.org/2000/svg" xmlns:xlink="http://www.w3.org/1999/xlink" x="0px" y="0px"
	 viewBox="0 0 100 100" style="enable-background:new 0 0 100 100;" xml:space="preserve">
<style type="text/css">
	.st0{fill-rule:evenodd;clip-rule:evenodd;fill:url(#Oval_00000096035890973457081710000000205112040388394372_);}
	.st1{fill-rule:evenodd;clip-rule:evenodd;fill:#FFFFFF;}
	.st2{fill:#FFFFFF;}
	.st3{fill:#0081FB;enable-background:new    ;}
	.st4{fill-rule:evenodd;clip-rule:evenodd;fill:#0172B1;}
	.st5{fill-rule:evenodd;clip-rule:evenodd;fill:#FEFEFE;}
	.st6{fill-rule:evenodd;clip-rule:evenodd;fill:#DBDBDB;}
	.st7{fill:#DBDBDB;}
	.st8{fill:#003769;}
	.st9{fill:#B2B2B2;}
	.st10{fill:#EFEFEF;}
</style>
<g>
	<g>
		<path class="st2" d="M38.1,37.6c-5.4,0-9.8,9.2-9.8,18.2h0c0,4.2,1.6,6.6,4.3,6.6c2.6,0,4.2-1.6,8.9-9c0,0,2.1-3.4,5.7-8.8
			C43.5,39.3,41,37.6,38.1,37.6z"/>
	</g>
	<g>
		<path class="st2" d="M61.7,36.4c-2.9,0-5.3,2.3-8.2,6.8c0.8,1.2,1.6,2.5,2.5,3.9l3.2,5.4l0,0c5.1,8.2,6.4,9.9,9,9.9
			c2.8,0,4.1-2.4,4.1-6.5C72.4,45.1,67.6,36.4,61.7,36.4z"/>
	</g>
	<g>
		<path class="st2" d="M50,2L50,2C23.5,2,2,23.5,2,50v0c0,26.5,21.5,48,48,48h0c26.5,0,48-21.5,48-48v0C98,23.5,76.5,2,50,2z
			 M68.1,68.4c-5.4,0-8.3-3-13.6-11.9L51.8,52c-0.6-1.1-1.3-2.1-1.8-3l-4,7.2c-5.8,10.1-9.1,12.3-13.6,12.3c-6.3,0-10-4.9-10-12.7
			c0-12.4,6.9-24.1,15.9-24.1c4.4,0,8.1,2.1,12.5,7.7C54,35,57.5,31.6,62,31.6c8.6,0,15.6,10.9,15.6,23.9
			C77.7,63.4,74.3,68.4,68.1,68.4z"/>
	</g>
</g>
</svg>
