<?xml version="1.0" encoding="utf-8"?>
<!-- Generator: Adobe Illustrator 26.0.3, SVG Export Plug-In . SVG Version: 6.00 Build 0)  -->
<svg version="1.1" id="Слой_1" xmlns="http://www.w3.org/2000/svg" xmlns:xlink="http://www.w3.org/1999/xlink" x="0px" y="0px"
	 viewBox="0 0 100 100" style="enable-background:new 0 0 100 100;" xml:space="preserve">
<style type="text/css">
	.st0{fill-rule:evenodd;clip-rule:evenodd;fill:url(#Oval_00000058569736498952846990000012953928158218905746_);}
	.st1{fill-rule:evenodd;clip-rule:evenodd;fill:#FFFFFF;}
	.st2{fill:#FFFFFF;}
	.st3{fill:#0081FB;enable-background:new    ;}
	.st4{fill-rule:evenodd;clip-rule:evenodd;fill:#0172B1;}
	.st5{fill-rule:evenodd;clip-rule:evenodd;fill:#FEFEFE;}
	.st6{fill-rule:evenodd;clip-rule:evenodd;fill:#DBDBDB;}
	.st7{fill:#DBDBDB;}
	.st8{fill:#003769;}
	.st9{fill:#B2B2B2;}
	.st10{fill:#EFEFEF;}
</style>
<g>
	<g>
		<path class="st1" d="M50,2C23.5,2,2,23.5,2,50c0,26.5,21.5,48,48,48c26.5,0,48-21.5,48-48C98,23.5,76.5,2,50,2z M34.1,76.3
			c0,0.7-0.1,1-0.9,1c-3.5,0-7,0-10.5,0c-0.6,0-0.9-0.2-0.9-0.9c0-11.7,0-23.5,0-35.2c0-0.6,0.1-0.8,0.8-0.8c3.6,0,7.1,0,10.7,0
			c0.7,0,0.8,0.2,0.8,0.9c0,5.9,0,11.7,0,17.6C34.1,64.7,34.1,70.5,34.1,76.3z M34.7,30.8c-0.8,3.3-4.3,5.2-8.2,4.6
			c-4.2-0.7-6.5-4.8-5-8.7c1-2.5,3.4-3.9,6.5-3.9C32.7,22.7,35.8,26.4,34.7,30.8z M78.3,76.4c0,0.7-0.2,1-0.9,1c-3.5,0-6.9,0-10.4,0
			c-0.8,0-1-0.2-0.9-1c0-6.2,0-12.4,0-18.5c0-1.4-0.1-2.8-0.5-4.2c-1.3-4.4-6.2-5.9-9.8-3c-1.9,1.6-2.6,3.6-2.6,6.1
			c0,5.8,0,11.6,0,17.5c0,0.8,0,1.5,0,2.3c0.1,0.7-0.2,0.8-0.8,0.8c-3.5,0-7.1,0-10.6,0c-0.6,0-0.9-0.1-0.9-0.8
			c0-5.3,0.1-10.5,0.1-15.8c0-6.5,0-12.9,0-19.4c0-0.7,0.1-0.9,0.9-0.9c3.5,0,7.1,0,10.6,0c0.6,0,0.8,0.2,0.8,0.8
			c-0.1,1.3,0,2.7,0,4.2c0.2-0.3,0.3-0.3,0.4-0.4c3.2-4.7,7.8-6.1,13.2-5.3c6.2,1,10.2,5.3,11.2,12c0.3,1.6,0.4,3.2,0.4,4.8
			C78.2,63.1,78.2,69.7,78.3,76.4z"/>
	</g>
</g>
</svg>
