<?xml version="1.0" encoding="utf-8"?>
<!-- Generator: Adobe Illustrator 26.0.3, SVG Export Plug-In . SVG Version: 6.00 Build 0)  -->
<svg version="1.1" id="Слой_1" xmlns="http://www.w3.org/2000/svg" xmlns:xlink="http://www.w3.org/1999/xlink" x="0px" y="0px"
	 viewBox="0 0 71.5 100" style="enable-background:new 0 0 71.5 100;" xml:space="preserve">
<style type="text/css">
	.st0{fill-rule:evenodd;clip-rule:evenodd;fill:url(#Oval_00000016065483339685366720000009893477329613915578_);}
	.st1{fill-rule:evenodd;clip-rule:evenodd;fill:#FFFFFF;}
	.st2{fill:#FFFFFF;}
	.st3{fill:#0081FB;enable-background:new    ;}
	.st4{fill-rule:evenodd;clip-rule:evenodd;fill:#0172B1;}
	.st5{fill-rule:evenodd;clip-rule:evenodd;fill:#FEFEFE;}
	.st6{fill-rule:evenodd;clip-rule:evenodd;fill:#DBDBDB;}
	.st7{fill:#DBDBDB;}
	.st8{fill:#003769;}
	.st9{fill:#B2B2B2;}
	.st10{fill:#EFEFEF;}
</style>
<g>
	<g>
		<path class="st9" d="M63.3,8.8C59.8,6.7,56.9,5,54,3.5c-6.3-3.3-13.8-1.1-17.5,5c-1.1,1.8-2.2,3.7-3.2,5.6L32.2,16L3.6,65.5
			c-1.3,2.2-1.9,4.5-1.9,7.1l0,0.4c0,0.3,0,0.7,0,1.1l0.7,6.1c0.6,4.7,1.1,9.3,1.5,14c0.1,1.4,0.8,2.7,1.9,3.3
			c1,0.6,2.2,0.7,3.5,0.1c5.3-2.3,10.6-4.5,15.9-6.6l2.6-1.1c3.4-1.4,5.9-3.5,7.8-6.7c5.1-9,10.3-18,15.5-26.9l9.8-16.9
			c2.3-4.1,4.7-8.1,7-12.2C71.7,20.5,69.8,12.8,63.3,8.8z M61.9,23.8L49.3,45.7C42.6,57.2,36,68.6,29.5,80c-0.9,1.6-2.2,2.7-3.9,3.4
			l-1.8,0.7c-3.5,1.4-6.9,2.8-10.3,4.3c-0.3,0.1-0.8,0.4-1.4,0.4c-0.3,0-0.7-0.1-1.1-0.3c-1-0.6-1.1-1.7-1.1-2.1
			c-0.2-2.5-0.5-4.9-0.8-7.4c-0.2-2.1-0.5-4.1-0.7-6.2c-0.2-1.7,0.5-3.1,1-3.9l20.8-36c1.4-2.5,2.8-4.9,4.2-7.3
			c0.4-0.6,0.9-1.4,1.8-1.6c1-0.2,1.8,0.2,2.4,0.5c2.1,1.3,4.2,2.5,6.4,3.7l0.7,0.4c1.2,0.7,2.6,0.7,3.7,0.1c1-0.6,1.5-1.5,1.5-2.6
			v0c0-1.6-0.6-2.5-2.1-3.4l-2.6-1.5c-1.5-0.9-3.1-1.8-4.6-2.7c-0.3-0.2-1.2-0.7-1.4-1.7c-0.3-1.1,0.3-1.9,0.5-2.2
			c0.3-0.4,0.5-0.9,0.8-1.3c0.3-0.5,0.6-1.1,0.9-1.5C44.4,9,47.9,8,50.8,9.6c3.2,1.7,6.4,3.5,9.2,5.3C63,16.7,63.8,20.5,61.9,23.8z"
			/>
	</g>
</g>
</svg>
